<svg width="512" height="512" viewBox="0 0 512 512" xmlns="http://www.w3.org/2000/svg">
  <rect width="512" height="512" fill="#000000" rx="64"/>
  <g transform="translate(256, 256) scale(1.2) translate(-256, -256)">
    <path fill="#ffffff" d="
      M249.431,250.427 
      C251.563,248.142 250.482,246.468 248.806,244.778 
      C242.118,238.035 235.358,231.368 228.050,225.290 
      C225.679,223.319 223.934,221.466 224.083,217.907 
      C224.376,210.928 224.046,203.922 223.993,196.928 
      C223.988,196.285 223.913,195.575 224.565,195.074 
      C225.574,194.863 226.263,195.567 227.001,196.047 
      C249.638,210.733 269.108,228.849 285.823,250.015 
      C287.981,252.748 288.797,255.332 288.774,258.764 
      C288.639,278.583 288.752,298.405 288.780,318.226 
      C288.781,318.636 288.825,319.062 287.929,319.605 
      C282.592,302.713 276.872,285.915 267.254,270.588 
      C250.582,285.572 236.817,302.508 224.970,321.135 
      C223.723,319.998 223.987,318.943 223.986,317.978 
      C223.980,312.230 224.314,306.462 223.926,300.742 
      C223.584,295.706 225.404,291.469 227.473,287.198 
      C233.693,274.356 240.741,262.010 249.431,250.427 
    z"/>
  </g>
</svg>
