<svg width="32" height="32" viewBox="0 0 1024 1024" xmlns="http://www.w3.org/2000/svg">
<defs>
    <linearGradient id="alifhDarkTheme" x1="0%" y1="0%" x2="100%" y2="100%">
      <stop offset="0%" style="stop-color:#000000;stop-opacity:1" />
      <stop offset="50%" style="stop-color:#1a1a1a;stop-opacity:1" />
      <stop offset="100%" style="stop-color:#333333;stop-opacity:1" />
    </linearGradient>
</defs>

<g transform="translate(512, 512) scale(2.5, 2.5) translate(-512, -512)">
<path fill="url(#alifhDarkTheme)" opacity="1.000000" stroke="none" 
	d="
M498.862549,500.853149 
	C503.125427,496.284393 500.964539,492.934570 497.612488,489.555573 
	C484.235321,476.070679 470.718872,462.728302 456.100708,450.579956 
	C451.357605,446.638214 447.868134,442.932037 448.166931,435.813782 
	C448.752899,421.855133 448.091034,407.844757 447.985992,393.855469 
	C447.976318,392.570465 447.825867,391.150513 449.129700,390.148285 
	C451.148132,389.726257 452.525299,391.134552 454.002441,392.092957 
	C499.275604,421.466492 538.215698,457.698639 571.646667,500.029999 
	C575.962769,505.495209 577.594666,510.663513 577.547852,517.527466 
	C577.277771,557.166687 577.503113,596.809326 577.560791,636.450806 
	C577.561951,637.271912 577.650696,638.123535 575.858276,639.210632 
	C565.184570,605.425659 553.743652,572.139709 534.507141,541.175903 
	C501.163727,571.144348 473.633148,605.015625 449.939056,642.269592 
	C447.445496,639.995361 447.975037,637.885864 447.972931,635.955017 
	C447.960571,624.460327 448.627014,612.923706 447.851440,601.483459 
	C447.168579,591.411133 450.807678,582.938171 454.945129,574.396118 
	C467.385742,548.711487 481.481781,524.009705 498.862549,500.853149 
z"/>
</g>
</svg>